<svg width="320" height="320" viewBox="0 0 320 320" fill="none" xmlns="http://www.w3.org/2000/svg">
<rect x="2.5" y="2.5" width="315" height="315" rx="157.5" fill="white" stroke="#8FFFB7" stroke-width="5"/>
<path d="M158.954 254.636C148.616 254.636 139.631 253.159 132 250.205C124.492 247.251 118.769 243.313 114.831 238.39C110.892 233.467 108.923 228.174 108.923 222.513C108.923 217.836 110.154 214.267 112.615 211.805C115.077 209.221 118.831 207.928 123.877 207.928C123.877 218.39 127.016 226.39 133.292 231.928C139.569 237.344 148.369 240.051 159.692 240.051C170.523 240.051 178.831 238.267 184.616 234.697C190.4 231.005 193.292 225.59 193.292 218.451C193.292 214.144 192.185 210.636 189.969 207.928C187.877 205.097 184.246 202.697 179.077 200.728C174.031 198.636 166.708 196.544 157.108 194.451C145.785 191.99 136.8 189.159 130.154 185.959C123.508 182.636 118.646 178.636 115.569 173.959C112.492 169.282 110.954 163.497 110.954 156.605C110.954 149.713 112.862 143.682 116.677 138.513C120.615 133.221 126.154 129.159 133.292 126.328C140.431 123.497 148.739 122.082 158.216 122.082C167.2 122.082 175.2 123.374 182.216 125.959C189.354 128.421 194.892 131.99 198.831 136.667C202.892 141.221 204.923 146.39 204.923 152.174C204.923 155.744 203.754 158.574 201.416 160.667C199.2 162.636 195.692 163.621 190.892 163.621C189.539 154.267 186.216 147.436 180.923 143.128C175.754 138.821 168.185 136.667 158.216 136.667C148.616 136.667 141.231 138.39 136.062 141.836C130.892 145.159 128.308 149.897 128.308 156.051C128.308 160.359 129.231 163.928 131.077 166.759C133.046 169.467 136.308 171.805 140.862 173.774C145.539 175.744 152.062 177.651 160.431 179.497C172.985 182.205 182.831 185.221 189.969 188.544C197.231 191.867 202.462 195.928 205.662 200.728C208.862 205.528 210.462 211.436 210.462 218.451C210.462 229.651 205.785 238.513 196.431 245.036C187.077 251.436 174.585 254.636 158.954 254.636Z" fill="#1ED760"/>
<path d="M205.118 65.6156C205.118 65.6156 209.256 133.958 152.235 126.06C152.235 126.06 155.842 105.672 180.808 82.3787C180.808 82.3787 153.52 96.5737 147.916 125.175C147.916 125.175 125.475 59.6426 205.118 65.6156Z" fill="#1ED760"/>
</svg>
