<svg width="136" height="39" viewBox="0 0 136 39" fill="none" xmlns="http://www.w3.org/2000/svg">
<path d="M13.647 34.4255C11.5509 34.4255 9.72923 34.1311 8.18207 33.5424C6.65987 32.9538 5.4995 32.1689 4.70097 31.1877C3.90244 30.2066 3.50317 29.1519 3.50317 28.0236C3.50317 27.0915 3.75272 26.3802 4.2518 25.8896C4.75088 25.3745 5.51198 25.117 6.5351 25.117C6.5351 27.2019 7.17143 28.7962 8.44409 29.9C9.71675 30.9792 11.501 31.5189 13.7968 31.5189C15.9927 31.5189 17.6771 31.1632 18.85 30.4519C20.0228 29.716 20.6092 28.6368 20.6092 27.2141C20.6092 26.3557 20.3846 25.6566 19.9355 25.117C19.5112 24.5528 18.7751 24.0745 17.727 23.6821C16.7039 23.2651 15.2191 22.8481 13.2727 22.4311C10.9769 21.9406 9.15528 21.3764 7.80776 20.7387C6.46024 20.0764 5.47455 19.2792 4.8507 18.3472C4.22684 17.4151 3.91492 16.2623 3.91492 14.8887C3.91492 13.5151 4.30171 12.3132 5.07528 11.283C5.87382 10.2283 6.99675 9.41886 8.44409 8.85471C9.89143 8.29056 11.5758 8.00848 13.4973 8.00848C15.319 8.00848 16.941 8.26603 18.3634 8.78112C19.8107 9.27169 20.9336 9.98301 21.7322 10.9151C22.5557 11.8226 22.9674 12.8528 22.9674 14.0057C22.9674 14.717 22.7303 15.2811 22.2562 15.6981C21.807 16.0906 21.0958 16.2868 20.1226 16.2868C19.8481 14.4226 19.1744 13.0613 18.1013 12.2028C17.0533 11.3443 15.5186 10.9151 13.4973 10.9151C11.5509 10.9151 10.0536 11.2585 9.00556 11.9453C7.95749 12.6075 7.43345 13.5519 7.43345 14.7783C7.43345 15.6368 7.62061 16.3481 7.99492 16.9123C8.39418 17.4519 9.05547 17.9179 9.97877 18.3104C10.927 18.7028 12.2496 19.083 13.9465 19.4509C16.4918 19.9906 18.4881 20.5915 19.9355 21.2538C21.4078 21.916 22.4683 22.7255 23.1171 23.6821C23.7659 24.6387 24.0903 25.816 24.0903 27.2141C24.0903 29.4462 23.1421 31.2123 21.2456 32.5123C19.349 33.7877 16.8162 34.4255 13.647 34.4255ZM28.3782 10.7311C28.3782 9.84811 28.6527 9.17358 29.2017 8.70754C29.7507 8.2415 30.5617 8.00848 31.6347 8.00848V17.6849C31.2854 18.0774 31.0109 18.4207 30.8112 18.7151L30.961 18.8623C31.7345 17.8321 32.7077 16.9981 33.8806 16.3604C35.0534 15.6981 36.3261 15.367 37.6986 15.367C39.7198 15.367 41.3169 15.9557 42.4898 17.133C43.6626 18.3104 44.249 19.8311 44.249 21.6953V32.0707C44.249 32.8802 43.9745 33.4811 43.4255 33.8736C42.9015 34.2415 42.0905 34.4255 40.9925 34.4255V22.0264C40.9925 20.849 40.6556 19.917 39.9819 19.2302C39.3081 18.5434 38.285 18.2 36.9125 18.2C35.9892 18.2 35.1158 18.3962 34.2923 18.7887C33.4938 19.1566 32.845 19.6717 32.3459 20.334C31.8718 20.9717 31.6347 21.6707 31.6347 22.4311V32.0707C31.6347 32.8802 31.3602 33.4811 30.8112 33.8736C30.2872 34.2415 29.4762 34.4255 28.3782 34.4255V10.7311ZM55.3179 34.4255C53.1719 34.4255 51.4376 33.8613 50.115 32.733C48.8174 31.6047 48.1686 30.1207 48.1686 28.2811C48.1686 26.417 48.8548 24.9207 50.2273 23.7924C51.5998 22.6396 53.4089 22.0632 55.6548 22.0632C58.0504 22.0632 60.0218 22.8972 61.5689 24.5651L61.7187 24.4179C61.4442 24.1236 61.1322 23.817 60.7829 23.4981V21.9528C60.7829 20.7019 60.3836 19.733 59.5851 19.0462C58.7866 18.3594 57.6511 18.016 56.1788 18.016C53.5587 18.016 51.6871 19.034 50.5642 21.0698C50.1649 20.8736 49.828 20.616 49.5535 20.2972C49.304 19.9538 49.1792 19.6104 49.1792 19.267C49.1792 18.6047 49.5161 17.9792 50.1898 17.3906C50.8636 16.7774 51.7495 16.2868 52.8475 15.9189C53.9704 15.5509 55.1432 15.367 56.366 15.367C58.7366 15.367 60.5957 15.9434 61.9432 17.0962C63.3157 18.249 64.002 19.8434 64.002 21.8792V31.9604C64.002 32.8189 63.7524 33.4443 63.2533 33.8368C62.7543 34.2292 61.9682 34.4255 60.8952 34.4255V32.6962C61.4192 32.1566 61.7062 31.8377 61.7561 31.7396L61.6064 31.5924C59.9843 33.4811 57.8882 34.4255 55.3179 34.4255ZM55.8794 31.8868C57.4265 31.8868 58.6368 31.5679 59.5102 30.9302C60.4086 30.2924 60.8577 29.4094 60.8577 28.2811C60.8577 27.1528 60.421 26.2575 59.5476 25.5953C58.6743 24.933 57.4765 24.6019 55.9543 24.6019C54.5319 24.6019 53.4089 24.933 52.5854 25.5953C51.7869 26.233 51.3876 27.1283 51.3876 28.2811C51.3876 29.434 51.7744 30.3292 52.548 30.967C53.3465 31.5802 54.457 31.8868 55.8794 31.8868ZM74.4903 34.4255C72.6687 34.4255 71.3087 33.9349 70.4103 32.9538C69.512 31.9481 69.0628 30.6358 69.0628 29.017V10.3632C69.0628 9.55377 69.3248 8.96509 69.8488 8.59716C70.3978 8.20471 71.2213 8.00848 72.3193 8.00848V28.9066C72.3193 29.8632 72.5189 30.55 72.9182 30.967C73.3175 31.384 73.9787 31.5924 74.902 31.5924C75.8253 31.5924 76.6738 31.3717 77.4474 30.9302C77.7718 31.2981 77.934 31.7274 77.934 32.2179C77.934 32.8066 77.622 33.3217 76.9982 33.7632C76.3743 34.2047 75.5384 34.4255 74.4903 34.4255ZM88.0181 34.4255C86.4959 34.4255 85.1109 34.1434 83.8632 33.5792C82.6404 33.0151 81.6797 32.2547 80.981 31.2981C80.3072 30.317 79.9704 29.2255 79.9704 28.0236V21.9896C79.9704 20.7632 80.3072 19.6472 80.981 18.6415C81.6797 17.6358 82.6404 16.8387 83.8632 16.25C85.0859 15.6613 86.4709 15.367 88.0181 15.367C89.5652 15.367 90.9502 15.6613 92.1729 16.25C93.4206 16.8387 94.3814 17.6358 95.0551 18.6415C95.7538 19.6472 96.1032 20.7632 96.1032 21.9896V28.0236C96.1032 29.2255 95.7538 30.317 95.0551 31.2981C94.3564 32.2547 93.3957 33.0151 92.1729 33.5792C90.9502 34.1434 89.5652 34.4255 88.0181 34.4255ZM88.0181 31.666C89.5153 31.666 90.7006 31.3226 91.574 30.6358C92.4724 29.9245 92.9215 29.0047 92.9215 27.8764V22.1C92.9215 20.9226 92.4724 19.966 91.574 19.2302C90.7006 18.4943 89.5153 18.1264 88.0181 18.1264C86.5458 18.1264 85.3605 18.4943 84.4621 19.2302C83.5638 19.966 83.1146 20.9226 83.1146 22.1V27.8764C83.1146 29.0047 83.5513 29.9245 84.4247 30.6358C85.323 31.3226 86.5208 31.666 88.0181 31.666ZM100.426 18.0896C100.426 16.2745 101.462 15.367 103.533 15.367V17.7217C103.208 18.0651 102.946 18.3962 102.747 18.7151L102.896 18.8623C103.695 17.7585 104.543 16.9 105.442 16.2868C106.34 15.6736 107.376 15.367 108.549 15.367C110.819 15.367 112.379 16.434 113.227 18.5679C114.65 16.434 116.546 15.367 118.917 15.367C120.689 15.367 122.049 15.9557 122.997 17.133C123.97 18.2858 124.457 19.8066 124.457 21.6953V32.0707C124.457 32.8802 124.182 33.4811 123.633 33.8736C123.109 34.2415 122.311 34.4255 121.238 34.4255V21.8792C121.238 20.7019 120.988 19.7821 120.489 19.1198C119.99 18.4575 119.204 18.1264 118.131 18.1264C117.008 18.1264 116.047 18.5066 115.249 19.267C114.45 20.0028 114.051 20.9962 114.051 22.2472V32.0707C114.051 32.8802 113.789 33.4811 113.265 33.8736C112.741 34.2415 111.942 34.4255 110.869 34.4255V21.8792C110.869 20.7019 110.62 19.7821 110.121 19.1198C109.622 18.4575 108.836 18.1264 107.763 18.1264C106.615 18.1264 105.641 18.5311 104.843 19.3406C104.044 20.15 103.645 21.1434 103.645 22.3207V32.0707C103.645 32.8802 103.371 33.4811 102.822 33.8736C102.298 34.2415 101.499 34.4255 100.426 34.4255V18.0896Z" fill="#1ED760"/>
<path d="M134.986 5.67038C134.986 5.67038 134.338 21.9108 120.826 18.6979C120.826 18.6979 122.182 13.9676 128.742 9.05547C128.742 9.05547 121.843 11.7636 119.809 18.3869C119.809 18.3869 115.992 2.37788 134.986 5.67038Z" fill="#1ED760"/>
</svg>
